<?xml version="1.0" standalone="no"?>
<!DOCTYPE svg PUBLIC "-//W3C//DTD SVG 20010904//EN"
 "http://www.w3.org/TR/2001/REC-SVG-20010904/DTD/svg10.dtd">
<svg version="1.0" xmlns="http://www.w3.org/2000/svg"
 width="1123.000000pt" height="1123.000000pt" viewBox="0 0 1123.000000 1123.000000"
 preserveAspectRatio="xMidYMid meet">
<metadata>
Created by potrace 1.11, written by Peter Selinger 2001-2013
</metadata>
<g transform="translate(0.000000,1123.000000) scale(0.100000,-0.100000)"
fill="#000000" stroke="none">
<path d="M4695 8168 c-44 -16 -89 -33 -100 -38 -11 -4 -60 -23 -110 -41 -75
-27 -220 -92 -234 -105 -2 -2 14 -25 36 -51 107 -130 200 -293 236 -413 57
-188 47 -385 -26 -540 -35 -76 -68 -121 -170 -233 -42 -45 -85 -93 -97 -107
-12 -14 -41 -47 -65 -75 -218 -247 -484 -655 -602 -920 -49 -110 -89 -223
-119 -334 -28 -102 -30 -108 -49 -231 -13 -85 -14 -384 -1 -445 32 -150 42
-190 66 -255 89 -240 210 -422 414 -625 135 -134 258 -231 433 -339 120 -73
262 -150 268 -144 2 2 -36 31 -83 65 -326 231 -603 544 -739 833 -107 227
-147 403 -146 645 0 303 82 578 272 910 38 67 143 220 152 223 5 2 9 8 9 14 0
14 130 177 229 288 147 165 483 483 636 602 55 43 140 136 173 192 142 234
117 556 -69 872 -39 66 -143 213 -184 260 -20 24 -52 22 -130 -8z"/>
<path d="M3935 8017 c-712 -329 -1272 -1008 -1439 -1747 -42 -183 -55 -304
-56 -505 0 -166 6 -246 36 -430 8 -51 57 -242 82 -320 182 -556 598 -1067
1137 -1392 99 -60 283 -155 334 -174 23 -8 23 -7 -8 18 -150 122 -220 185
-291 261 -224 239 -373 505 -435 775 -50 218 -53 458 -8 682 2 11 8 42 13 69
64 320 302 786 598 1169 96 124 214 267 262 317 213 222 266 317 277 496 11
173 -35 316 -163 509 -64 96 -244 305 -262 305 -4 0 -38 -15 -77 -33z"/>
<path d="M7044 7918 c-260 -241 -459 -516 -583 -805 -37 -86 -86 -244 -96
-313 -3 -19 -9 -60 -14 -90 -10 -57 -7 -317 3 -360 3 -14 9 -41 12 -60 10 -53
41 -166 63 -224 31 -83 81 -171 184 -327 111 -168 191 -313 246 -448 45 -111
88 -241 96 -290 3 -19 8 -38 10 -41 3 -4 7 -25 10 -46 3 -22 8 -44 10 -51 7
-20 19 -176 19 -243 0 -97 -13 -215 -33 -305 -84 -371 -329 -706 -714 -977
-45 -32 -97 -68 -114 -80 -58 -41 -35 -40 40 0 39 22 104 56 142 77 482 260
767 609 861 1049 63 297 24 666 -103 996 -20 53 -105 257 -143 345 -5 11 -14
38 -21 60 -6 22 -16 51 -20 65 -43 130 -55 406 -25 565 33 176 116 387 213
545 115 186 326 422 516 579 42 35 77 67 77 71 0 8 -105 93 -195 157 -132 93
-337 213 -364 213 -6 0 -41 -28 -77 -62z"/>
<path d="M7825 7563 c-450 -332 -723 -699 -815 -1097 -26 -111 -32 -165 -30
-276 2 -209 32 -329 147 -590 99 -222 146 -375 188 -605 25 -136 25 -438 1
-575 -20 -113 -57 -249 -87 -316 -13 -27 -23 -51 -23 -54 -3 -17 -77 -147
-119 -209 -127 -189 -306 -359 -532 -507 -86 -56 -301 -169 -395 -209 -103
-43 -97 -47 60 -41 80 4 161 8 180 11 19 2 60 6 91 9 72 8 215 32 299 52 36 9
74 17 86 20 77 15 288 84 411 135 213 87 483 235 613 336 389 301 630 583 813
948 101 203 197 501 223 690 3 28 8 59 10 70 27 136 24 481 -6 655 -5 30 -12
68 -14 84 -52 303 -242 732 -445 1001 -158 210 -491 536 -547 535 -10 0 -59
-30 -109 -67z"/>
<path d="M5208 5683 c-130 -121 -195 -296 -163 -438 11 -47 54 -139 62 -131 2
2 -1 23 -6 47 -18 84 -25 134 -24 196 1 52 5 68 34 110 18 26 57 72 86 102 53
55 64 58 116 36 18 -7 18 -6 2 31 -9 22 -21 51 -27 67 -5 15 -14 27 -19 27 -6
0 -33 -21 -61 -47z"/>
<path d="M4850 5630 c-15 -28 -23 -90 -24 -180 0 -64 4 -84 27 -130 17 -32 47
-69 73 -90 61 -48 73 -50 36 -4 -50 63 -92 165 -92 226 0 49 16 128 25 128 2
0 23 -10 45 -21 23 -12 43 -19 47 -16 8 8 -97 107 -113 107 -8 0 -18 -9 -24
-20z"/>
<path d="M5451 5584 c-39 -21 -102 -63 -141 -96 -99 -83 -142 -154 -154 -252
-5 -42 10 -135 25 -150 5 -6 10 -19 10 -30 1 -12 5 20 10 69 9 109 36 170 106
242 64 65 170 130 192 116 9 -5 35 -47 59 -94 34 -67 44 -97 47 -146 4 -72
-15 -155 -50 -218 -14 -24 -25 -46 -25 -49 0 -3 22 18 49 46 103 108 132 230
87 360 -20 55 -127 238 -140 238 -2 0 -36 -16 -75 -36z"/>
<path d="M5765 5559 c-28 -23 -52 -43 -54 -45 -2 -2 11 1 28 6 28 8 33 6 41
-14 50 -132 45 -277 -13 -361 -11 -16 -39 -50 -61 -74 l-41 -45 44 34 c108 83
173 232 165 374 -4 63 -37 166 -53 166 -3 0 -29 -18 -56 -41z"/>
<path d="M4708 5448 c-34 -100 3 -189 86 -208 49 -11 48 -3 -14 135 -10 22
-25 57 -33 78 -9 20 -18 37 -21 37 -2 0 -11 -19 -18 -42z"/>
<path d="M6031 5359 c-46 -16 -87 -31 -90 -35 -7 -7 118 4 131 12 15 9 8 -20
-17 -74 -31 -66 -135 -173 -201 -206 -29 -14 -57 -26 -62 -26 -6 0 -13 -4 -16
-9 -3 -4 18 -4 47 1 145 26 294 179 312 321 8 56 10 56 -104 16z"/>
<path d="M4610 5286 c-29 -89 -15 -217 33 -297 60 -102 132 -148 257 -165 36
-5 54 -15 90 -53 53 -54 164 -114 197 -105 19 5 10 15 -65 72 -48 36 -92 71
-98 77 -18 18 -24 46 -14 65 8 14 6 17 -8 15 -69 -14 -70 -15 -68 -39 3 -24 3
-24 -36 -10 -127 44 -228 171 -228 287 l0 39 38 -30 c72 -56 165 -98 292 -132
25 -6 78 -33 118 -60 39 -26 72 -45 72 -42 0 14 -59 122 -74 137 -19 20 -172
95 -261 129 -131 50 -167 70 -200 110 l-32 39 -13 -37z"/>
<path d="M6143 5163 c-12 -10 -65 -51 -119 -92 -94 -72 -97 -75 -71 -82 99
-26 190 42 213 159 7 37 5 39 -23 15z"/>
<path d="M6110 4963 c-67 -17 -164 -21 -245 -9 -63 9 -155 10 -208 1 -42 -7
-144 -58 -182 -90 l-30 -26 30 7 c76 17 107 21 167 18 34 -1 113 -5 173 -8 68
-3 137 0 182 8 82 15 83 14 18 -61 -63 -73 -202 -127 -327 -127 -40 0 -25 -12
33 -26 134 -32 282 30 378 157 37 50 77 142 69 162 -2 5 -28 2 -58 -6z"/>
<path d="M5590 4784 c0 -4 7 -15 16 -25 15 -17 13 -19 -33 -42 -64 -32 -129
-47 -208 -48 -36 -1 -63 -4 -60 -8 2 -4 29 -13 60 -20 53 -12 55 -14 37 -27
-37 -26 -82 -23 -149 9 -35 16 -66 27 -69 24 -4 -3 8 -23 24 -44 35 -44 55
-108 47 -153 -6 -34 -34 -109 -46 -126 -5 -6 -17 -47 -28 -91 -21 -88 -21
-181 -2 -252 14 -49 20 -62 144 -305 84 -162 104 -225 77 -241 -16 -10 -76 21
-166 85 -111 79 -150 98 -172 83 -53 -34 55 -234 220 -405 79 -83 80 -75 2 37
-57 83 -124 203 -124 224 0 28 30 21 108 -27 95 -57 125 -65 168 -47 55 23 50
58 -33 235 -20 41 -55 107 -80 146 -24 40 -48 87 -54 105 -37 124 -43 278 -14
391 38 146 170 322 285 380 67 33 130 77 130 91 0 7 -18 22 -40 35 -22 12 -40
19 -40 16z"/>
</g>
</svg>
